# Wavefront OBJ file
# Exported by Maverick Model 3D 1.3.12
# Sun Apr 18 02:05:57 2021

mtllib labtafel.mtl

# 64 Vertices
v -1.989456 1.913333 1.27
v -1.989456 2.033333 1.27
v 1.989456 2.033333 1.27
v 1.989456 1.913333 1.27
v -1.989456 1.913333 -1.27
v -1.989456 2.033333 -1.27
v 1.989456 2.033333 -1.27
v 1.989456 1.913333 -1.27
v 1.90236 1.913333 1.17348
v -1.90236 1.913333 1.17348
v -1.90236 1.913333 -1.17348
v 1.90236 1.913333 -1.17348
v 1.90236 1.685778 1.17348
v -1.90236 1.685778 1.17348
v -1.90236 1.685778 -1.17348
v 1.90236 1.685778 -1.17348
v -1.79745 -0.00461 -0.829938
v -1.79745 3.041183 -0.829938
v -1.645386 3.041183 -0.829938
v -1.645386 -0.00461 -0.829938
v -1.79745 -0.00461 -0.982002
v -1.79745 3.041183 -0.982002
v -1.645386 3.041183 -0.982002
v -1.645386 -0.00461 -0.982002
v -1.79745 -0.000602 0.998989
v -1.79745 1.71062 0.998989
v -1.645386 1.71062 0.998989
v -1.645386 -0.000602 0.998989
v -1.79745 -0.000602 0.846925
v -1.79745 1.71062 0.846925
v -1.645386 1.71062 0.846925
v -1.645386 -0.000602 0.846925
v -1.894 3.005153 -0.438071
v -1.894 3.133153 -0.438071
v 1.894 3.133153 -0.438071
v 1.894 3.005153 -0.438071
v -1.894 3.005153 -1.262071
v -1.894 3.133153 -1.262071
v 1.894 3.133153 -1.262071
v 1.894 3.005153 -1.262071
v -1.894 2.46592 -0.438071
v -1.894 2.59392 -0.438071
v 1.894 2.59392 -0.438071
v 1.894 2.46592 -0.438071
v -1.894 2.46592 -1.262071
v -1.894 2.59392 -1.262071
v 1.894 2.59392 -1.262071
v 1.894 2.46592 -1.262071
v 1.631155 -0.00461 -0.829938
v 1.631155 3.041183 -0.829938
v 1.783219 3.041183 -0.829938
v 1.783219 -0.00461 -0.829938
v 1.631155 -0.00461 -0.982002
v 1.631155 3.041183 -0.982002
v 1.783219 3.041183 -0.982002
v 1.783219 -0.00461 -0.982002
v 1.631155 -0.000602 0.998989
v 1.631155 1.71062 0.998989
v 1.783219 1.71062 0.998989
v 1.783219 -0.000602 0.998989
v 1.631155 -0.000602 0.846925
v 1.631155 1.71062 0.846925
v 1.783219 1.71062 0.846925
v 1.783219 -0.000602 0.846925

# 276 Texture Coordinates
vt 0.570575 0.539626
vt 0.044628 0.540796
vt 0.044593 0.524934
vt 0.570575 0.539626
vt 0.044593 0.524934
vt 0.570539 0.523764
vt 0.570575 0.539626
vt 0.55909 0.55241
vt 0.056169 0.553529
vt 0.570575 0.539626
vt 0.056169 0.553529
vt 0.044628 0.540796
vt 0.570539 0.523764
vt 0.569792 0.188018
vt 0.585654 0.187983
vt 0.570539 0.523764
vt 0.585654 0.187983
vt 0.586401 0.523729
vt 0.044593 0.524934
vt 0.043846 0.189188
vt 0.569792 0.188018
vt 0.044593 0.524934
vt 0.569792 0.188018
vt 0.570539 0.523764
vt 0.028731 0.524969
vt 0.027984 0.189223
vt 0.043846 0.189188
vt 0.028731 0.524969
vt 0.043846 0.189188
vt 0.044593 0.524934
vt 0.028731 0.524969
vt 0.01719 0.512237
vt 0.0165 0.202007
vt 0.028731 0.524969
vt 0.0165 0.202007
vt 0.027984 0.189223
vt 0.585654 0.187983
vt 0.597195 0.200715
vt 0.597886 0.510945
vt 0.585654 0.187983
vt 0.597886 0.510945
vt 0.586401 0.523729
vt 0.569792 0.188018
vt 0.043846 0.189188
vt 0.043811 0.173326
vt 0.569792 0.188018
vt 0.043811 0.173326
vt 0.569757 0.172156
vt 0.043811 0.173326
vt 0.055295 0.160542
vt 0.558216 0.159423
vt 0.043811 0.173326
vt 0.558216 0.159423
vt 0.569757 0.172156
vt 0.63837 0.982842
vt 0.638359 0.952314
vt 0.953219 0.952204
vt 0.63837 0.982842
vt 0.953219 0.952204
vt 0.95323 0.982732
vt 0.607653 0.441896
vt 0.638181 0.441885
vt 0.638359 0.952314
vt 0.607653 0.441896
vt 0.638359 0.952314
vt 0.607831 0.952325
vt 0.953031 0.411247
vt 0.953041 0.441776
vt 0.638181 0.441885
vt 0.953031 0.411247
vt 0.638181 0.441885
vt 0.63817 0.411357
vt 0.983748 0.952193
vt 0.953219 0.952204
vt 0.953041 0.441776
vt 0.983748 0.952193
vt 0.953041 0.441776
vt 0.983569 0.441765
vt 0.638181 0.441885
vt 0.953041 0.441776
vt 0.953219 0.952204
vt 0.638181 0.441885
vt 0.953219 0.952204
vt 0.638359 0.952314
vt 0.648835 0.398507
vt 0.62945 0.398507
vt 0.62945 0.010232
vt 0.648835 0.398507
vt 0.62945 0.010232
vt 0.648835 0.010232
vt 0.272956 0.084609
vt 0.272956 0.103994
vt 0.253571 0.103994
vt 0.272956 0.084609
vt 0.253571 0.103994
vt 0.253571 0.084609
vt 0.648835 0.010232
vt 0.66822 0.010232
vt 0.66822 0.398507
vt 0.648835 0.010232
vt 0.66822 0.398507
vt 0.648835 0.398507
vt 0.70699 0.398507
vt 0.687605 0.398507
vt 0.687605 0.010232
vt 0.70699 0.398507
vt 0.687605 0.010232
vt 0.70699 0.010232
vt 0.66822 0.010232
vt 0.687605 0.010232
vt 0.687605 0.398507
vt 0.66822 0.010232
vt 0.687605 0.398507
vt 0.66822 0.398507
vt 0.852253 0.229685
vt 0.832868 0.229685
vt 0.832868 0.01154
vt 0.852253 0.229685
vt 0.832868 0.01154
vt 0.852253 0.01154
vt 0.234387 0.083309
vt 0.234387 0.102694
vt 0.215002 0.102694
vt 0.234387 0.083309
vt 0.215002 0.102694
vt 0.215002 0.083309
vt 0.852253 0.01154
vt 0.871638 0.01154
vt 0.871638 0.229685
vt 0.852253 0.01154
vt 0.871638 0.229685
vt 0.852253 0.229685
vt 0.832868 0.229685
vt 0.813483 0.229685
vt 0.813483 0.01154
vt 0.832868 0.229685
vt 0.813483 0.01154
vt 0.832868 0.01154
vt 0.871638 0.01154
vt 0.891023 0.01154
vt 0.891023 0.229685
vt 0.871638 0.01154
vt 0.891023 0.229685
vt 0.871638 0.229685
vt 0.495031 0.989803
vt 0.096873 0.98981
vt 0.096869 0.976355
vt 0.495031 0.989803
vt 0.096869 0.976355
vt 0.495031 0.976349
vt 0.495068 0.789689
vt 0.495036 0.876302
vt 0.096849 0.87626
vt 0.495068 0.789689
vt 0.096849 0.87626
vt 0.09686 0.789638
vt 0.581125 0.88973
vt 0.495034 0.889741
vt 0.495036 0.876302
vt 0.581125 0.88973
vt 0.495036 0.876302
vt 0.58113 0.876355
vt 0.096869 0.976355
vt 0.096848 0.889733
vt 0.495034 0.889741
vt 0.096869 0.976355
vt 0.495034 0.889741
vt 0.495031 0.976349
vt 0.009623 0.87616
vt 0.096849 0.87626
vt 0.096848 0.889733
vt 0.009623 0.87616
vt 0.096848 0.889733
vt 0.009612 0.889711
vt 0.495034 0.889741
vt 0.096848 0.889733
vt 0.096849 0.87626
vt 0.495034 0.889741
vt 0.096849 0.87626
vt 0.495036 0.876302
vt 0.497694 0.784104
vt 0.094005 0.784252
vt 0.093996 0.77061
vt 0.497694 0.784104
vt 0.093996 0.77061
vt 0.497689 0.770463
vt 0.49766 0.58121
vt 0.497659 0.669026
vt 0.093941 0.669125
vt 0.49766 0.58121
vt 0.093941 0.669125
vt 0.093921 0.581299
vt 0.584949 0.68261
vt 0.497661 0.682652
vt 0.497659 0.669026
vt 0.584949 0.68261
vt 0.497659 0.669026
vt 0.584948 0.669049
vt 0.093996 0.77061
vt 0.093945 0.682785
vt 0.497661 0.682652
vt 0.093996 0.77061
vt 0.497661 0.682652
vt 0.497689 0.770463
vt 0.005503 0.669054
vt 0.093941 0.669125
vt 0.093945 0.682785
vt 0.005503 0.669054
vt 0.093945 0.682785
vt 0.005497 0.682793
vt 0.497661 0.682652
vt 0.093945 0.682785
vt 0.093941 0.669125
vt 0.497661 0.682652
vt 0.093941 0.669125
vt 0.497659 0.669026
vt 0.720151 0.00951
vt 0.739536 0.00951
vt 0.739536 0.397785
vt 0.720151 0.00951
vt 0.739536 0.397785
vt 0.720151 0.397785
vt 0.200006 0.083453
vt 0.200006 0.102838
vt 0.180621 0.102838
vt 0.200006 0.083453
vt 0.180621 0.102838
vt 0.180621 0.083453
vt 0.797691 0.397785
vt 0.778306 0.397785
vt 0.778306 0.00951
vt 0.797691 0.397785
vt 0.778306 0.00951
vt 0.797691 0.00951
vt 0.739536 0.00951
vt 0.75892 0.00951
vt 0.75892 0.397785
vt 0.739536 0.00951
vt 0.75892 0.397785
vt 0.739536 0.397785
vt 0.778306 0.397785
vt 0.75892 0.397785
vt 0.75892 0.00951
vt 0.778306 0.397785
vt 0.75892 0.00951
vt 0.778306 0.00951
vt 0.96366 0.226219
vt 0.944275 0.226219
vt 0.944275 0.008074
vt 0.96366 0.226219
vt 0.944275 0.008074
vt 0.96366 0.008074
vt 0.155803 0.080853
vt 0.155803 0.100238
vt 0.136418 0.100238
vt 0.155803 0.080853
vt 0.136418 0.100238
vt 0.136418 0.080853
vt 0.96366 0.008074
vt 0.983045 0.008074
vt 0.983045 0.226219
vt 0.96366 0.008074
vt 0.983045 0.226219
vt 0.96366 0.226219
vt 0.944275 0.226219
vt 0.92489 0.226219
vt 0.92489 0.008074
vt 0.944275 0.226219
vt 0.92489 0.008074
vt 0.944275 0.008074
vt 0.905505 0.008074
vt 0.92489 0.008074
vt 0.92489 0.226219
vt 0.905505 0.008074
vt 0.92489 0.226219
vt 0.905505 0.226219

# 276 Vertex Normals
vn 0.0 0.0 1.0
vn 0.0 0.0 1.0
vn 0.0 0.0 1.0
vn 0.0 0.0 1.0
vn 0.0 0.0 1.0
vn 0.0 0.0 1.0
vn 0.0 -1.0 0.0
vn 0.0 -1.0 0.0
vn 0.0 -1.0 0.0
vn 0.0 -1.0 0.0
vn 0.0 -1.0 0.0
vn 0.0 -1.0 0.0
vn -1.0 0.0 0.0
vn -1.0 0.0 0.0
vn -1.0 0.0 0.0
vn -1.0 0.0 0.0
vn -1.0 0.0 0.0
vn -1.0 0.0 0.0
vn 0.0 1.0 0.0
vn 0.0 1.0 0.0
vn 0.0 1.0 0.0
vn 0.0 1.0 0.0
vn 0.0 1.0 0.0
vn 0.0 1.0 0.0
vn 1.0 0.0 0.0
vn 1.0 0.0 0.0
vn 1.0 0.0 0.0
vn 1.0 0.0 0.0
vn 1.0 0.0 0.0
vn 1.0 0.0 0.0
vn 0.0 -1.0 0.0
vn 0.0 -1.0 0.0
vn 0.0 -1.0 0.0
vn 0.0 -1.0 0.0
vn 0.0 -1.0 0.0
vn 0.0 -1.0 0.0
vn 0.0 -1.0 0.0
vn 0.0 -1.0 0.0
vn 0.0 -1.0 0.0
vn 0.0 -1.0 0.0
vn 0.0 -1.0 0.0
vn 0.0 -1.0 0.0
vn 0.0 0.0 -1.0
vn 0.0 0.0 -1.0
vn 0.0 0.0 -1.0
vn 0.0 0.0 -1.0
vn 0.0 0.0 -1.0
vn 0.0 0.0 -1.0
vn 0.0 -1.0 0.0
vn 0.0 -1.0 0.0
vn 0.0 -1.0 0.0
vn 0.0 -1.0 0.0
vn 0.0 -1.0 0.0
vn 0.0 -1.0 0.0
vn 1.0 0.0 0.0
vn 1.0 0.0 0.0
vn 1.0 0.0 0.0
vn 1.0 0.0 0.0
vn 1.0 0.0 0.0
vn 1.0 0.0 0.0
vn 0.0 0.0 1.0
vn 0.0 0.0 1.0
vn 0.0 0.0 1.0
vn 0.0 0.0 1.0
vn 0.0 0.0 1.0
vn 0.0 0.0 1.0
vn -1.0 0.0 0.0
vn -1.0 0.0 0.0
vn -1.0 0.0 0.0
vn -1.0 0.0 0.0
vn -1.0 0.0 0.0
vn -1.0 0.0 0.0
vn 0.0 0.0 -1.0
vn 0.0 0.0 -1.0
vn 0.0 0.0 -1.0
vn 0.0 0.0 -1.0
vn 0.0 0.0 -1.0
vn 0.0 0.0 -1.0
vn 0.0 -1.0 0.0
vn 0.0 -1.0 0.0
vn 0.0 -1.0 0.0
vn 0.0 -1.0 0.0
vn 0.0 -1.0 0.0
vn 0.0 -1.0 0.0
vn 0.0 0.0 1.0
vn 0.0 0.0 1.0
vn 0.0 0.0 1.0
vn 0.0 0.0 1.0
vn 0.0 0.0 1.0
vn 0.0 0.0 1.0
vn 0.0 -1.0 0.0
vn 0.0 -1.0 0.0
vn 0.0 -1.0 0.0
vn 0.0 -1.0 0.0
vn 0.0 -1.0 0.0
vn 0.0 -1.0 0.0
vn -1.0 0.0 0.0
vn -1.0 0.0 0.0
vn -1.0 0.0 0.0
vn -1.0 0.0 0.0
vn -1.0 0.0 0.0
vn -1.0 0.0 0.0
vn 1.0 0.0 0.0
vn 1.0 0.0 0.0
vn 1.0 0.0 0.0
vn 1.0 0.0 0.0
vn 1.0 0.0 0.0
vn 1.0 0.0 0.0
vn 0.0 0.0 -1.0
vn 0.0 0.0 -1.0
vn 0.0 0.0 -1.0
vn 0.0 0.0 -1.0
vn 0.0 0.0 -1.0
vn 0.0 0.0 -1.0
vn 0.0 0.0 1.0
vn 0.0 0.0 1.0
vn 0.0 0.0 1.0
vn 0.0 0.0 1.0
vn 0.0 0.0 1.0
vn 0.0 0.0 1.0
vn 0.0 -1.0 0.0
vn 0.0 -1.0 0.0
vn 0.0 -1.0 0.0
vn 0.0 -1.0 0.0
vn 0.0 -1.0 0.0
vn 0.0 -1.0 0.0
vn -1.0 0.0 0.0
vn -1.0 0.0 0.0
vn -1.0 0.0 0.0
vn -1.0 0.0 0.0
vn -1.0 0.0 0.0
vn -1.0 0.0 0.0
vn 1.0 0.0 0.0
vn 1.0 0.0 0.0
vn 1.0 0.0 0.0
vn 1.0 0.0 0.0
vn 1.0 0.0 0.0
vn 1.0 0.0 0.0
vn 0.0 0.0 -1.0
vn 0.0 0.0 -1.0
vn 0.0 0.0 -1.0
vn 0.0 0.0 -1.0
vn 0.0 0.0 -1.0
vn 0.0 0.0 -1.0
vn 0.0 0.0 1.0
vn 0.0 0.0 1.0
vn 0.0 0.0 1.0
vn 0.0 0.0 1.0
vn 0.0 0.0 1.0
vn 0.0 0.0 1.0
vn 0.0 -1.0 0.0
vn 0.0 -1.0 0.0
vn 0.0 -1.0 0.0
vn 0.0 -1.0 0.0
vn 0.0 -1.0 0.0
vn 0.0 -1.0 0.0
vn -1.0 0.0 0.0
vn -1.0 0.0 0.0
vn -1.0 0.0 0.0
vn -1.0 0.0 0.0
vn -1.0 0.0 0.0
vn -1.0 0.0 0.0
vn 0.0 1.0 0.0
vn 0.0 1.0 0.0
vn 0.0 1.0 0.0
vn 0.0 1.0 0.0
vn 0.0 1.0 0.0
vn 0.0 1.0 0.0
vn 1.0 0.0 0.0
vn 1.0 0.0 0.0
vn 1.0 0.0 0.0
vn 1.0 0.0 0.0
vn 1.0 0.0 0.0
vn 1.0 0.0 0.0
vn 0.0 0.0 -1.0
vn 0.0 0.0 -1.0
vn 0.0 0.0 -1.0
vn 0.0 0.0 -1.0
vn 0.0 0.0 -1.0
vn 0.0 0.0 -1.0
vn 0.0 0.0 1.0
vn 0.0 0.0 1.0
vn 0.0 0.0 1.0
vn 0.0 0.0 1.0
vn 0.0 0.0 1.0
vn 0.0 0.0 1.0
vn 0.0 -1.0 0.0
vn 0.0 -1.0 0.0
vn 0.0 -1.0 0.0
vn 0.0 -1.0 0.0
vn 0.0 -1.0 0.0
vn 0.0 -1.0 0.0
vn -1.0 0.0 0.0
vn -1.0 0.0 0.0
vn -1.0 0.0 0.0
vn -1.0 0.0 0.0
vn -1.0 0.0 0.0
vn -1.0 0.0 0.0
vn 0.0 1.0 0.0
vn 0.0 1.0 0.0
vn 0.0 1.0 0.0
vn 0.0 1.0 0.0
vn 0.0 1.0 0.0
vn 0.0 1.0 0.0
vn 1.0 0.0 0.0
vn 1.0 0.0 0.0
vn 1.0 0.0 0.0
vn 1.0 0.0 0.0
vn 1.0 0.0 0.0
vn 1.0 0.0 0.0
vn 0.0 0.0 -1.0
vn 0.0 0.0 -1.0
vn 0.0 0.0 -1.0
vn 0.0 0.0 -1.0
vn 0.0 0.0 -1.0
vn 0.0 0.0 -1.0
vn 0.0 0.0 1.0
vn 0.0 0.0 1.0
vn 0.0 0.0 1.0
vn 0.0 0.0 1.0
vn 0.0 0.0 1.0
vn 0.0 0.0 1.0
vn 0.0 -1.0 0.0
vn 0.0 -1.0 0.0
vn 0.0 -1.0 0.0
vn 0.0 -1.0 0.0
vn 0.0 -1.0 0.0
vn 0.0 -1.0 0.0
vn -1.0 0.0 0.0
vn -1.0 0.0 0.0
vn -1.0 0.0 0.0
vn -1.0 0.0 0.0
vn -1.0 0.0 0.0
vn -1.0 0.0 0.0
vn 1.0 0.0 0.0
vn 1.0 0.0 0.0
vn 1.0 0.0 0.0
vn 1.0 0.0 0.0
vn 1.0 0.0 0.0
vn 1.0 0.0 0.0
vn 0.0 0.0 -1.0
vn 0.0 0.0 -1.0
vn 0.0 0.0 -1.0
vn 0.0 0.0 -1.0
vn 0.0 0.0 -1.0
vn 0.0 0.0 -1.0
vn 0.0 0.0 1.0
vn 0.0 0.0 1.0
vn 0.0 0.0 1.0
vn 0.0 0.0 1.0
vn 0.0 0.0 1.0
vn 0.0 0.0 1.0
vn 0.0 -1.0 0.0
vn 0.0 -1.0 0.0
vn 0.0 -1.0 0.0
vn 0.0 -1.0 0.0
vn 0.0 -1.0 0.0
vn 0.0 -1.0 0.0
vn -1.0 0.0 0.0
vn -1.0 0.0 0.0
vn -1.0 0.0 0.0
vn -1.0 0.0 0.0
vn -1.0 0.0 0.0
vn -1.0 0.0 0.0
vn 1.0 0.0 0.0
vn 1.0 0.0 0.0
vn 1.0 0.0 0.0
vn 1.0 0.0 0.0
vn 1.0 0.0 0.0
vn 1.0 0.0 0.0
vn 0.0 0.0 -1.0
vn 0.0 0.0 -1.0
vn 0.0 0.0 -1.0
vn 0.0 0.0 -1.0
vn 0.0 0.0 -1.0
vn 0.0 0.0 -1.0

# cube1_cube1_auv, 92 grouped triangles

usemtl skin
o cube1_cube1_auv
g cube1_cube1_auv

f 1/1/1 4/2/2 3/3/3
f 1/4/4 3/5/5 2/6/6
f 1/7/7 10/8/8 9/9/9
f 1/10/10 9/11/11 4/12/12
f 2/13/13 6/14/14 5/15/15
f 2/16/16 5/17/17 1/18/18
f 3/19/19 7/20/20 6/21/21
f 3/22/22 6/23/23 2/24/24
f 4/25/25 8/26/26 7/27/27
f 4/28/28 7/29/29 3/30/30
f 4/31/31 9/32/32 12/33/33
f 4/34/34 12/35/35 8/36/36
f 5/37/37 11/38/38 10/39/39
f 5/40/40 10/41/41 1/42/42
f 6/43/43 7/44/44 8/45/45
f 6/46/46 8/47/47 5/48/48
f 8/49/49 12/50/50 11/51/51
f 8/52/52 11/53/53 5/54/54
f 9/55/55 13/56/56 16/57/57
f 9/58/58 16/59/59 12/60/60
f 10/61/61 14/62/62 13/63/63
f 10/64/64 13/65/65 9/66/66
f 11/67/67 15/68/68 14/69/69
f 11/70/70 14/71/71 10/72/72
f 12/73/73 16/74/74 15/75/75
f 12/76/76 15/77/77 11/78/78
f 14/79/79 15/80/80 16/81/81
f 14/82/82 16/83/83 13/84/84
f 17/85/85 20/86/86 19/87/87
f 17/88/88 19/89/89 18/90/90
f 17/91/91 21/92/92 24/93/93
f 17/94/94 24/95/95 20/96/96
f 18/97/97 22/98/98 21/99/99
f 18/100/100 21/101/101 17/102/102
f 20/103/103 24/104/104 23/105/105
f 20/106/106 23/107/107 19/108/108
f 22/109/109 23/110/110 24/111/111
f 22/112/112 24/113/113 21/114/114
f 25/115/115 28/116/116 27/117/117
f 25/118/118 27/119/119 26/120/120
f 25/121/121 29/122/122 32/123/123
f 25/124/124 32/125/125 28/126/126
f 26/127/127 30/128/128 29/129/129
f 26/130/130 29/131/131 25/132/132
f 28/133/133 32/134/134 31/135/135
f 28/136/136 31/137/137 27/138/138
f 30/139/139 31/140/140 32/141/141
f 30/142/142 32/143/143 29/144/144
f 33/145/145 36/146/146 35/147/147
f 33/148/148 35/149/149 34/150/150
f 33/151/151 37/152/152 40/153/153
f 33/154/154 40/155/155 36/156/156
f 34/157/157 38/158/158 37/159/159
f 34/160/160 37/161/161 33/162/162
f 35/163/163 39/164/164 38/165/165
f 35/166/166 38/167/167 34/168/168
f 36/169/169 40/170/170 39/171/171
f 36/172/172 39/173/173 35/174/174
f 38/175/175 39/176/176 40/177/177
f 38/178/178 40/179/179 37/180/180
f 41/181/181 44/182/182 43/183/183
f 41/184/184 43/185/185 42/186/186
f 41/187/187 45/188/188 48/189/189
f 41/190/190 48/191/191 44/192/192
f 42/193/193 46/194/194 45/195/195
f 42/196/196 45/197/197 41/198/198
f 43/199/199 47/200/200 46/201/201
f 43/202/202 46/203/203 42/204/204
f 44/205/205 48/206/206 47/207/207
f 44/208/208 47/209/209 43/210/210
f 46/211/211 47/212/212 48/213/213
f 46/214/214 48/215/215 45/216/216
f 49/217/217 52/218/218 51/219/219
f 49/220/220 51/221/221 50/222/222
f 49/223/223 53/224/224 56/225/225
f 49/226/226 56/227/227 52/228/228
f 50/229/229 54/230/230 53/231/231
f 50/232/232 53/233/233 49/234/234
f 52/235/235 56/236/236 55/237/237
f 52/238/238 55/239/239 51/240/240
f 54/241/241 55/242/242 56/243/243
f 54/244/244 56/245/245 53/246/246
f 57/247/247 60/248/248 59/249/249
f 57/250/250 59/251/251 58/252/252
f 57/253/253 61/254/254 64/255/255
f 57/256/256 64/257/257 60/258/258
f 58/259/259 62/260/260 61/261/261
f 58/262/262 61/263/263 57/264/264
f 60/265/265 64/266/266 63/267/267
f 60/268/268 63/269/269 59/270/270
f 62/271/271 63/272/272 64/273/273
f 62/274/274 64/275/275 61/276/276
